<?xml version="1.0" encoding="iso-8859-1"?>
<!-- Generator: Adobe Illustrator 16.0.0, SVG Export Plug-In . SVG Version: 6.00 Build 0)  -->
<!DOCTYPE svg PUBLIC "-//W3C//DTD SVG 1.1//EN" "http://www.w3.org/Graphics/SVG/1.1/DTD/svg11.dtd">
<svg id="SentryIcon" xmlns="http://www.w3.org/2000/svg" xmlns:xlink="http://www.w3.org/1999/xlink" viewBox="0 0 480 480"><defs><style>.stripe-cls-1{fill:url(#stripe-linear-gradient);}.stripe-cls-2{fill:#fff;fill-rule:evenodd;}</style><linearGradient id="stripe-linear-gradient" x1="70.29" y1="-329.71" x2="409.71" y2="9.71" gradientTransform="translate(0 400)" gradientUnits="userSpaceOnUse"><stop offset="0" stop-color="#6772e5"/><stop offset="1" stop-color="#2e3cdc"/></linearGradient></defs><title>stripe-icon</title><circle class="stripe-cls-1" cx="240" cy="240" r="240"/><path class="stripe-cls-2" d="M225.8,199.51c0-8.57,7.14-11.9,18.64-11.9,16.7,0,37.9,5.11,54.6,14.13V150a145,145,0,0,0-54.55-10c-44.53,0-74.22,23.26-74.22,62.12,0,60.78,83.46,50.9,83.46,77.11,0,10.14-8.82,13.42-21.06,13.42-18.18,0-41.65-7.51-60.08-17.53v52.41a152.33,152.33,0,0,0,60,12.46c45.64,0,77.09-22.55,77.09-62.07C309.72,212.47,225.8,224.22,225.8,199.51Z"/></svg>
