<?xml version="1.0" encoding="iso-8859-1"?>
<svg xmlns="http://www.w3.org/2000/svg" viewBox="0 0 480 480"><title>stripe-icon-mask</title><path d="M240,0C107.45,0,0,107.45,0,240S107.45,480,240,480,480,372.55,480,240,372.55,0,240,0Zm-7.38,340a152.34,152.34,0,0,1-60-12.46V275.13c18.42,10,41.89,17.53,60.08,17.53,12.25,0,21.06-3.28,21.06-13.42,0-26.21-83.46-16.34-83.46-77.11C170.28,163.26,200,140,244.5,140A145,145,0,0,1,299,150v51.7c-16.7-9-37.9-14.13-54.6-14.13-11.5,0-18.64,3.33-18.64,11.9,0,24.7,83.91,13,83.91,78.42C309.72,317.45,278.27,340,232.62,340Z"/></svg>
